<svg xmlns="http://www.w3.org/2000/svg" version="1.1" xmlns:xlink="http://www.w3.org/1999/xlink" xmlns:svgjs="http://svgjs.dev/svgjs" width="2000" height="1999" viewBox="0 0 2000 1999"><g transform="matrix(1,0,0,1,-0.431486880466764,-0.4312711370263287)"><svg viewBox="0 0 343 343" data-background-color="#ffffff" preserveAspectRatio="xMidYMid meet" height="1999" width="2000" xmlns="http://www.w3.org/2000/svg" xmlns:xlink="http://www.w3.org/1999/xlink"><g id="tight-bounds" transform="matrix(1,0,0,1,0.0740000000000407,0.07400000000001228)"><svg viewBox="0 0 342.85155851775386 342.85155851775386" height="342.85155851775386" width="342.85155851775386"><rect width="342.852" height="342.852" fill="url(#db5a8305-0b7e-4b4c-b031-10ecf25f58d9)" mask="url(#65750870-1369-40a3-ac81-068fe2b63b09)" data-fill-palette-color="tertiary"></rect><g><svg></svg></g><g><svg viewBox="0 0 342.85155851775386 342.85155851775386" height="342.85155851775386" width="342.85155851775386"><g><path d="M0 171.426c0-94.676 76.75-171.426 171.426-171.426 94.676 0 171.426 76.75 171.426 171.426 0 94.676-76.75 171.426-171.426 171.426-94.676 0-171.426-76.75-171.426-171.426zM171.426 340.67c93.471 0 169.244-75.773 169.244-169.244 0-93.471-75.773-169.244-169.244-169.244-93.471 0-169.244 75.773-169.244 169.244 0 93.471 75.773 169.244 169.244 169.244z" data-fill-palette-color="tertiary" fill="url(#db5a8305-0b7e-4b4c-b031-10ecf25f58d9)" stroke="transparent"></path><ellipse rx="164.56874808852186" ry="164.56874808852186" cx="171.42577925887693" cy="171.42577925887693" fill="url(#db5a8305-0b7e-4b4c-b031-10ecf25f58d9)" stroke="transparent" stroke-width="0" fill-opacity="1" data-fill-palette-color="tertiary"></ellipse></g><g transform="matrix(1,0,0,1,64.84655864529837,116.86383587405936)"><svg viewBox="0 0 213.1584412271571 109.12388676963515" height="109.12388676963515" width="213.1584412271571"><g><svg viewBox="0 0 213.1584412271571 109.12388676963515" height="109.12388676963515" width="213.1584412271571"><g><svg viewBox="0 0 213.1584412271571 109.12388676963515" height="109.12388676963515" width="213.1584412271571"><g transform="matrix(1,0,0,1,0,65.70987483937819)"><svg viewBox="0 0 213.1584412271571 43.41401193025696" height="43.41401193025696" width="213.1584412271571"><g id="textblocktransform"><svg viewBox="0 0 213.1584412271571 43.41401193025696" height="43.41401193025696" width="213.1584412271571" id="textblock"><g><svg viewBox="0 0 213.1584412271571 24.194371099828242" height="24.194371099828242" width="213.1584412271571"><g transform="matrix(1,0,0,1,0,0)"><svg width="213.1584412271571" viewBox="1.45 -35.75 318.03000000000003 36.1" height="24.194371099828242" data-palette-color="#ffffff"><path d="M27.2-31.7L25.1-28.05Q24.5-28.75 23.5-29.4 22.5-30.05 21.25-30.58 20-31.1 18.53-31.43 17.05-31.75 15.45-31.75L15.45-31.75Q11.35-31.75 9.4-30.2 7.45-28.65 7.45-25.95L7.45-25.95Q7.45-24.05 8.45-22.95 9.45-21.85 11.53-21.15 13.6-20.45 16.8-19.7L16.8-19.7Q20.5-18.9 23.2-17.75 25.9-16.6 27.35-14.68 28.8-12.75 28.8-9.55L28.8-9.55Q28.8-7 27.83-5.13 26.85-3.25 25.1-2.02 23.35-0.8 21-0.23 18.65 0.35 15.9 0.35L15.9 0.35Q13.2 0.35 10.63-0.23 8.05-0.8 5.75-1.9 3.45-3 1.45-4.65L1.45-4.65 3.6-8.45Q4.4-7.6 5.68-6.78 6.95-5.95 8.58-5.25 10.2-4.55 12.1-4.13 14-3.7 16-3.7L16-3.7Q19.8-3.7 21.9-5.08 24-6.45 24-9.1L24-9.1Q24-11.1 22.83-12.3 21.65-13.5 19.35-14.3 17.05-15.1 13.75-15.9L13.75-15.9Q10.15-16.8 7.7-17.88 5.25-18.95 4.03-20.7 2.8-22.45 2.8-25.25L2.8-25.25Q2.8-28.65 4.45-31 6.1-33.35 9-34.55 11.9-35.75 15.55-35.75L15.55-35.75Q17.95-35.75 20.03-35.25 22.1-34.75 23.9-33.85 25.7-32.95 27.2-31.7L27.2-31.7ZM53.05-19.85L46.9-35.3 51.15-35.3 55.85-22.95 60.6-35.3 64.85-35.3 58.7-19.85 64.8-5.2 76.8-35.5 81.7-35.5 66.85 0 62.95 0 55.9-16.75 48.8 0 44.9 0 30.1-35.5 34.95-35.5 47-5.2 53.05-19.85ZM90.84-4L110.44-4 110.44 0 86.34 0 86.34-35.5 110-35.5 110-31.5 90.84-31.5 90.84-20 107.5-20 107.5-16.25 90.84-16.25 90.84-4ZM121.09-4L140.69-4 140.69 0 116.59 0 116.59-35.5 140.24-35.5 140.24-31.5 121.09-31.5 121.09-20 137.74-20 137.74-16.25 121.09-16.25 121.09-4ZM172.44-35.5L172.44-31.5 160.19-31.5 160.19 0 155.69 0 155.69-31.5 143.44-31.5 143.44-35.5 172.44-35.5ZM186.04 0L186.04-3.5 208.94-31.5 186.49-31.5 186.49-35.5 214.19-35.5 214.19-32 191.69-4 214.19-4 214.19 0 186.04 0ZM233.88 0.25L233.88 0.25Q230.13 0.25 227.08-1.25 224.03-2.75 221.81-5.33 219.58-7.9 218.38-11.13 217.18-14.35 217.18-17.75L217.18-17.75Q217.18-21.3 218.46-24.53 219.73-27.75 222.01-30.28 224.28-32.8 227.33-34.27 230.38-35.75 233.98-35.75L233.98-35.75Q237.73-35.75 240.78-34.2 243.83-32.65 246.03-30.05 248.23-27.45 249.43-24.25 250.63-21.05 250.63-17.7L250.63-17.7Q250.63-14.15 249.38-10.93 248.13-7.7 245.86-5.18 243.58-2.65 240.53-1.2 237.48 0.25 233.88 0.25ZM221.73-17.75L221.73-17.75Q221.73-15.05 222.61-12.53 223.48-10 225.08-8.05 226.68-6.1 228.93-4.95 231.18-3.8 233.93-3.8L233.93-3.8Q236.78-3.8 239.03-5 241.28-6.2 242.86-8.2 244.43-10.2 245.26-12.7 246.08-15.2 246.08-17.75L246.08-17.75Q246.08-20.45 245.21-22.95 244.33-25.45 242.71-27.43 241.08-29.4 238.86-30.53 236.63-31.65 233.93-31.65L233.93-31.65Q231.08-31.65 228.83-30.48 226.58-29.3 225.01-27.3 223.43-25.3 222.58-22.83 221.73-20.35 221.73-17.75ZM282.78 0L261.38-27.2 261.38 0 256.88 0 256.88-35.5 260.68-35.5 282.38-7.75 282.38-35.45 286.88-35.45 286.88 0 282.78 0ZM299.88-4L319.48-4 319.48 0 295.38 0 295.38-35.5 319.03-35.5 319.03-31.5 299.88-31.5 299.88-20 316.53-20 316.53-16.25 299.88-16.25 299.88-4Z" opacity="1" transform="matrix(1,0,0,1,0,0)" fill="#ffffff" class="wordmark-text-0" data-fill-palette-color="quaternary" id="text-0"></path></svg></g></svg></g><g transform="matrix(1,0,0,1,0,29.906081451591294)"><svg viewBox="0 0 213.1584412271571 13.50793047866567" height="13.50793047866567" width="213.1584412271571"><g transform="matrix(1,0,0,1,0,0)"><svg width="213.1584412271571" viewBox="4.05 -35 710.9000000000001 45.050000000000004" height="13.50793047866567" data-palette-color="#ffffff"><path d="M10.7-34.55L10.7-34.55Q13.2-34.55 15.73-34.55 18.25-34.55 20.73-34.48 23.2-34.4 25.5-34.25L25.5-34.25 25.3-30.8 11.45-30.8Q9.9-30.8 9.18-30.03 8.45-29.25 8.45-27.5L8.45-27.5 8.45-7Q8.45-5.25 9.18-4.45 9.9-3.65 11.45-3.65L11.45-3.65 25.3-3.65 25.5-0.25Q23.2-0.1 20.73-0.05 18.25 0 15.73 0.03 13.2 0.05 10.7 0.05L10.7 0.05Q7.65 0.05 5.88-1.58 4.1-3.2 4.05-5.95L4.05-5.95 4.05-28.55Q4.1-31.35 5.88-32.95 7.65-34.55 10.7-34.55ZM4.95-16.45L4.95-20 23.35-20 23.35-16.45 4.95-16.45ZM40-24.95L40-24.95Q41.6-24.95 43.4-24.85 45.2-24.75 46.98-24.6 48.75-24.45 50.25-24.2L50.25-24.2 49.9-21.1Q47.6-21.2 45.28-21.28 42.95-21.35 40.65-21.35L40.65-21.35Q38.4-21.4 37.1-21.25 35.8-21.1 35.23-20.45 34.65-19.8 34.65-18.25L34.65-18.25Q34.65-16.35 35.55-15.75 36.45-15.15 38.2-14.75L38.2-14.75 45.3-13.15Q48.2-12.45 49.58-11 50.95-9.55 50.95-6.45L50.95-6.45Q50.95-3.45 49.83-1.95 48.7-0.45 46.4 0.05 44.1 0.55 40.55 0.55L40.55 0.55Q39.25 0.55 36.68 0.45 34.1 0.35 31-0.15L31-0.15 31.3-3.25Q32.5-3.2 33.85-3.13 35.2-3.05 36.68-3.05 38.15-3.05 39.7-3.05L39.7-3.05Q42.45-3.05 44-3.3 45.55-3.55 46.2-4.28 46.85-5 46.85-6.45L46.85-6.45Q46.85-8.25 45.8-8.85 44.75-9.45 43-9.85L43-9.85 36-11.45Q34-11.95 32.8-12.78 31.6-13.6 31.05-14.93 30.5-16.25 30.5-18.25L30.5-18.25Q30.5-21.1 31.5-22.55 32.5-24 34.6-24.5 36.7-25 40-24.95ZM59.15-31.55L63.4-31.55 63.4-6.7Q63.4-4.95 64.15-4.2 64.9-3.45 66.7-3.45L66.7-3.45 70.4-3.45 70.9-0.2Q70.1 0 69.05 0.15 68 0.3 67 0.38 66 0.45 65.4 0.45L65.4 0.45Q62.35 0.45 60.75-1.25 59.15-2.95 59.15-6.15L59.15-6.15 59.15-31.55ZM59.55-24.35L71.15-24.35 71.15-21 54.75-21 54.75-24.1 59.55-24.35ZM76.55-24.35L80.75-24.35 80.75 0 76.55 0 76.55-24.35ZM77.65-34.7L79.65-34.7Q80.95-34.7 80.95-33.4L80.95-33.4 80.95-30.55Q80.95-29.25 79.65-29.25L79.65-29.25 77.65-29.25Q76.35-29.25 76.35-30.55L76.35-30.55 76.35-33.4Q76.35-34.7 77.65-34.7L77.65-34.7ZM88.8-35L93.05-35 93-6.7Q93-5.1 93.88-4.28 94.75-3.45 96.35-3.45L96.35-3.45 98.7-3.45 99.2-0.2Q98.75 0 97.93 0.15 97.1 0.3 96.23 0.38 95.35 0.45 94.75 0.45L94.75 0.45Q92.05 0.45 90.43-1.15 88.8-2.75 88.8-5.75L88.8-5.75 88.8-35ZM113.9-24.95L113.9-24.95Q118.1-24.95 120.63-23.7 123.15-22.45 124.25-19.63 125.35-16.8 125.35-12.15L125.35-12.15Q125.35-7.5 124.25-4.67 123.15-1.85 120.63-0.6 118.1 0.65 113.9 0.65L113.9 0.65Q109.75 0.65 107.23-0.6 104.7-1.85 103.58-4.67 102.45-7.5 102.45-12.15L102.45-12.15Q102.45-16.8 103.58-19.63 104.7-22.45 107.23-23.7 109.75-24.95 113.9-24.95ZM113.9-21.35L113.9-21.35Q111.25-21.35 109.73-20.53 108.2-19.7 107.55-17.7 106.9-15.7 106.9-12.15L106.9-12.15Q106.9-8.6 107.55-6.6 108.2-4.6 109.73-3.78 111.25-2.95 113.9-2.95L113.9-2.95Q116.55-2.95 118.1-3.78 119.65-4.6 120.3-6.6 120.95-8.6 120.95-12.15L120.95-12.15Q120.95-15.7 120.3-17.7 119.65-19.7 118.1-20.53 116.55-21.35 113.9-21.35ZM153.15-24.95L153.15-24.95Q158.65-24.95 161.13-22.95 163.6-20.95 163.6-17L163.6-17Q163.65-13.75 162.25-11.93 160.85-10.1 157.8-10.1L157.8-10.1 143.6-10.1 143.6-13.4 156.7-13.4Q158.35-13.4 158.85-14.53 159.35-15.65 159.35-17L159.35-17Q159.3-19.35 157.95-20.35 156.6-21.35 153.35-21.35L153.35-21.35Q150.7-21.35 149.18-20.58 147.65-19.8 147.03-17.88 146.4-15.95 146.4-12.5L146.4-12.5Q146.4-8.6 147.18-6.55 147.95-4.5 149.65-3.75 151.35-3 154.15-3L154.15-3Q156.1-3 158.43-3.18 160.75-3.35 162.6-3.6L162.6-3.6 163.05-0.75Q161.9-0.3 160.23 0 158.55 0.3 156.78 0.45 155 0.6 153.6 0.6L153.6 0.6Q149.4 0.6 146.85-0.68 144.3-1.95 143.13-4.78 141.95-7.6 141.95-12.25L141.95-12.25Q141.95-17.05 143.13-19.83 144.3-22.6 146.78-23.78 149.25-24.95 153.15-24.95ZM184.8-24.95L184.8-24.95Q191.4-24.95 191.4-18.25L191.4-18.25 191.4 0 187.15 0 187.15-17.05Q187.15-19.5 186.35-20.43 185.55-21.35 183.65-21.35L183.65-21.35Q181.4-21.35 179.15-20.25 176.9-19.15 173.8-17.25L173.8-17.25 173.6-20.3Q176.45-22.5 179.25-23.73 182.05-24.95 184.8-24.95ZM170-24.35L173.6-24.35 173.95-19.7 174.25-18.95 174.25 0 170 0 170-24.35ZM210.25-35L214.5-35 214.45-6.7Q214.45-5.1 215.33-4.28 216.2-3.45 217.8-3.45L217.8-3.45 220.15-3.45 220.65-0.2Q220.2 0 219.38 0.15 218.55 0.3 217.68 0.38 216.8 0.45 216.2 0.45L216.2 0.45Q213.5 0.45 211.88-1.15 210.25-2.75 210.25-5.75L210.25-5.75 210.25-35ZM236.55-24.95L236.55-24.95Q239.25-24.95 241.13-24.23 243-23.5 243.95-21.8 244.9-20.1 244.9-17.15L244.9-17.15 244.9 0 241.55 0 240.9-5.3 240.6-5.85 240.6-17.15Q240.6-19.4 239.58-20.38 238.55-21.35 235.65-21.35L235.65-21.35Q233.75-21.35 230.88-21.15 228-20.95 225.2-20.7L225.2-20.7 224.8-23.85Q226.5-24.15 228.53-24.4 230.55-24.65 232.65-24.8 234.75-24.95 236.55-24.95ZM230.45-15L242.9-15 242.85-11.8 231.2-11.75Q229.45-11.7 228.75-10.83 228.05-9.95 228.05-8.4L228.05-8.4 228.05-6.85Q228.05-4.95 228.95-4.08 229.85-3.2 231.85-3.2L231.85-3.2Q233.25-3.2 235.03-3.73 236.8-4.25 238.6-5.35 240.4-6.45 241.9-8.15L241.9-8.15 241.9-5Q241.35-4.3 240.33-3.38 239.3-2.45 237.88-1.58 236.45-0.7 234.73-0.13 233 0.45 231 0.45L231 0.45Q228.85 0.45 227.2-0.33 225.55-1.1 224.63-2.63 223.7-4.15 223.7-6.35L223.7-6.35 223.7-9Q223.7-11.85 225.48-13.43 227.25-15 230.45-15L230.45-15ZM277.6-24.95L277.6-24.95Q282.05-24.95 284-21.68 285.95-18.4 285.95-12.05L285.95-12.05Q285.95-7.35 284.95-4.58 283.95-1.8 281.93-0.6 279.9 0.6 276.75 0.6L276.75 0.6Q274.35 0.6 272.02-0.05 269.7-0.7 267.5-2.05L267.5-2.05 267.75-4.6Q270.1-3.95 271.9-3.53 273.7-3.1 275.7-3.1L275.7-3.1Q277.85-3.1 279.13-3.85 280.4-4.6 281-6.55 281.6-8.5 281.6-12.05L281.6-12.05Q281.6-15.5 281.05-17.5 280.5-19.5 279.32-20.38 278.15-21.25 276.2-21.25L276.2-21.25Q274.2-21.25 272.25-20.3 270.3-19.35 267.7-17.4L267.7-17.4 267.3-20.25Q268.65-21.7 270.35-22.75 272.05-23.8 273.93-24.38 275.8-24.95 277.6-24.95ZM263.65-24.35L267.15-24.35 267.6-19.3 267.9-18.65 267.9-3.05 267.7-2.45Q267.85-1.05 267.88 0.25 267.9 1.55 267.9 3L267.9 3 267.9 10.05 263.65 10.05 263.65-24.35ZM304.15-24.95L304.15-24.95Q306.85-24.95 308.73-24.23 310.6-23.5 311.55-21.8 312.5-20.1 312.5-17.15L312.5-17.15 312.5 0 309.15 0 308.5-5.3 308.2-5.85 308.2-17.15Q308.2-19.4 307.18-20.38 306.15-21.35 303.25-21.35L303.25-21.35Q301.35-21.35 298.48-21.15 295.6-20.95 292.8-20.7L292.8-20.7 292.4-23.85Q294.1-24.15 296.13-24.4 298.15-24.65 300.25-24.8 302.35-24.95 304.15-24.95ZM298.05-15L310.5-15 310.45-11.8 298.8-11.75Q297.05-11.7 296.35-10.83 295.65-9.95 295.65-8.4L295.65-8.4 295.65-6.85Q295.65-4.95 296.55-4.08 297.45-3.2 299.45-3.2L299.45-3.2Q300.85-3.2 302.63-3.73 304.4-4.25 306.2-5.35 308-6.45 309.5-8.15L309.5-8.15 309.5-5Q308.95-4.3 307.93-3.38 306.9-2.45 305.48-1.58 304.05-0.7 302.32-0.13 300.6 0.45 298.6 0.45L298.6 0.45Q296.45 0.45 294.8-0.33 293.15-1.1 292.23-2.63 291.3-4.15 291.3-6.35L291.3-6.35 291.3-9Q291.3-11.85 293.07-13.43 294.85-15 298.05-15L298.05-15ZM320.15-35L324.4-35 324.35-6.7Q324.35-5.1 325.22-4.28 326.1-3.45 327.7-3.45L327.7-3.45 330.05-3.45 330.55-0.2Q330.1 0 329.27 0.15 328.45 0.3 327.57 0.38 326.7 0.45 326.1 0.45L326.1 0.45Q323.4 0.45 321.77-1.15 320.15-2.75 320.15-5.75L320.15-5.75 320.15-35ZM364.6-24.95L364.6-24.95Q367.75-24.95 369.43-23.25 371.1-21.55 371.1-18.25L371.1-18.25 371.1 0 366.9 0 366.9-17.05Q366.85-19.3 366-20.33 365.15-21.35 363.1-21.35L363.1-21.35Q361.8-21.35 360.63-20.93 359.45-20.5 358.05-19.6 356.65-18.7 354.65-17.25L354.65-17.25 354.4-20.25Q357.05-22.6 359.55-23.78 362.05-24.95 364.6-24.95ZM334.95-24.35L338.45-24.35 338.75-19.7 339.2-18.95 339.2 0 334.95 0 334.95-24.35ZM348.65-24.95L348.65-24.95Q351.75-24.95 353.4-23.28 355.05-21.6 355.1-18.25L355.1-18.25 355.1 0 351 0 351-17.05Q351-19.4 350.05-20.38 349.1-21.35 347.2-21.35L347.2-21.35Q345.95-21.35 344.78-20.95 343.6-20.55 342.18-19.65 340.75-18.75 338.7-17.25L338.7-17.25 338.4-20.25Q341.05-22.6 343.55-23.78 346.05-24.95 348.65-24.95ZM390.25-24.95L390.25-24.95Q392.95-24.95 394.83-24.23 396.7-23.5 397.65-21.8 398.6-20.1 398.6-17.15L398.6-17.15 398.6 0 395.25 0 394.6-5.3 394.3-5.85 394.3-17.15Q394.3-19.4 393.28-20.38 392.25-21.35 389.35-21.35L389.35-21.35Q387.45-21.35 384.58-21.15 381.7-20.95 378.9-20.7L378.9-20.7 378.5-23.85Q380.2-24.15 382.23-24.4 384.25-24.65 386.35-24.8 388.45-24.95 390.25-24.95ZM384.15-15L396.6-15 396.55-11.8 384.9-11.75Q383.15-11.7 382.45-10.83 381.75-9.95 381.75-8.4L381.75-8.4 381.75-6.85Q381.75-4.95 382.65-4.08 383.55-3.2 385.55-3.2L385.55-3.2Q386.95-3.2 388.73-3.73 390.5-4.25 392.3-5.35 394.1-6.45 395.6-8.15L395.6-8.15 395.6-5Q395.05-4.3 394.03-3.38 393-2.45 391.58-1.58 390.15-0.7 388.43-0.13 386.7 0.45 384.7 0.45L384.7 0.45Q382.55 0.45 380.9-0.33 379.25-1.1 378.33-2.63 377.4-4.15 377.4-6.35L377.4-6.35 377.4-9Q377.4-11.85 379.18-13.43 380.95-15 384.15-15L384.15-15ZM425.45-24.95L425.45-24.95Q427.85-24.95 430.2-24.33 432.55-23.7 434.7-22.4L434.7-22.4 434.45-19.75Q432.1-20.45 430.3-20.85 428.5-21.25 426.45-21.25L426.45-21.25Q424.35-21.25 423.07-20.53 421.8-19.8 421.2-17.85 420.6-15.9 420.6-12.3L420.6-12.3Q420.6-8.7 421.18-6.7 421.75-4.7 423-3.9 424.25-3.1 426.2-3.1L426.2-3.1Q427.65-3.1 428.82-3.48 430-3.85 431.32-4.7 432.65-5.55 434.45-6.85L434.45-6.85 434.85-3.85Q432.85-2 430.3-0.7 427.75 0.6 424.8 0.6L424.8 0.6Q420.2 0.6 418.22-2.65 416.25-5.9 416.25-12.25L416.25-12.25Q416.25-17 417.25-19.78 418.25-22.55 420.3-23.75 422.35-24.95 425.45-24.95ZM433.9-35L438.15-35 438.15 0 434.85 0 434.35-4.25 433.9-4.6 433.9-21.3 434.2-22.05Q434-23.45 433.95-24.75 433.9-26.05 433.9-27.5L433.9-27.5 433.9-35ZM456-24.95L456-24.95Q461.5-24.95 463.97-22.95 466.45-20.95 466.45-17L466.45-17Q466.5-13.75 465.1-11.93 463.7-10.1 460.65-10.1L460.65-10.1 446.45-10.1 446.45-13.4 459.55-13.4Q461.2-13.4 461.7-14.53 462.2-15.65 462.2-17L462.2-17Q462.15-19.35 460.8-20.35 459.45-21.35 456.2-21.35L456.2-21.35Q453.55-21.35 452.02-20.58 450.5-19.8 449.87-17.88 449.25-15.95 449.25-12.5L449.25-12.5Q449.25-8.6 450.02-6.55 450.8-4.5 452.5-3.75 454.2-3 457-3L457-3Q458.95-3 461.27-3.18 463.6-3.35 465.45-3.6L465.45-3.6 465.9-0.75Q464.75-0.3 463.07 0 461.4 0.3 459.62 0.45 457.85 0.6 456.45 0.6L456.45 0.6Q452.25 0.6 449.7-0.68 447.15-1.95 445.97-4.78 444.8-7.6 444.8-12.25L444.8-12.25Q444.8-17.05 445.97-19.83 447.15-22.6 449.62-23.78 452.1-24.95 456-24.95ZM484.95-31.55L489.2-31.55 489.2-6.7Q489.2-4.95 489.95-4.2 490.7-3.45 492.5-3.45L492.5-3.45 496.2-3.45 496.7-0.2Q495.9 0 494.85 0.15 493.8 0.3 492.8 0.38 491.8 0.45 491.2 0.45L491.2 0.45Q488.15 0.45 486.55-1.25 484.95-2.95 484.95-6.15L484.95-6.15 484.95-31.55ZM485.35-24.35L496.95-24.35 496.95-21 480.55-21 480.55-24.1 485.35-24.35ZM502-24.35L506.25-24.35 506.25-7.25Q506.2-4.95 507.1-4 508-3.05 510.1-3.05L510.1-3.05Q512.15-3.05 514.17-4.03 516.2-5 519.05-6.85L519.05-6.85 519.6-3.9Q516.75-1.65 514.08-0.5 511.4 0.65 508.65 0.65L508.65 0.65Q502 0.65 502-6.05L502-6.05 502-24.35ZM518.6-24.35L522.85-24.35 522.85 0 519.45 0 519.05-4.6 518.6-5.35 518.6-24.35ZM538.75-24.95L538.75-24.95Q540.35-24.95 542.15-24.85 543.95-24.75 545.73-24.6 547.5-24.45 549-24.2L549-24.2 548.65-21.1Q546.35-21.2 544.02-21.28 541.7-21.35 539.4-21.35L539.4-21.35Q537.15-21.4 535.85-21.25 534.55-21.1 533.98-20.45 533.4-19.8 533.4-18.25L533.4-18.25Q533.4-16.35 534.3-15.75 535.2-15.15 536.95-14.75L536.95-14.75 544.05-13.15Q546.95-12.45 548.33-11 549.7-9.55 549.7-6.45L549.7-6.45Q549.7-3.45 548.58-1.95 547.45-0.45 545.15 0.05 542.85 0.55 539.3 0.55L539.3 0.55Q538 0.55 535.42 0.45 532.85 0.35 529.75-0.15L529.75-0.15 530.05-3.25Q531.25-3.2 532.6-3.13 533.95-3.05 535.42-3.05 536.9-3.05 538.45-3.05L538.45-3.05Q541.2-3.05 542.75-3.3 544.3-3.55 544.95-4.28 545.6-5 545.6-6.45L545.6-6.45Q545.6-8.25 544.55-8.85 543.5-9.45 541.75-9.85L541.75-9.85 534.75-11.45Q532.75-11.95 531.55-12.78 530.35-13.6 529.8-14.93 529.25-16.25 529.25-18.25L529.25-18.25Q529.25-21.1 530.25-22.55 531.25-24 533.35-24.5 535.45-25 538.75-24.95ZM596.85-24.95L596.85-24.95Q600-24.95 601.67-23.25 603.35-21.55 603.35-18.25L603.35-18.25 603.35 0 599.15 0 599.15-17.05Q599.1-19.3 598.25-20.33 597.4-21.35 595.35-21.35L595.35-21.35Q594.05-21.35 592.88-20.93 591.7-20.5 590.3-19.6 588.9-18.7 586.9-17.25L586.9-17.25 586.65-20.25Q589.3-22.6 591.8-23.78 594.3-24.95 596.85-24.95ZM567.2-24.35L570.7-24.35 571-19.7 571.45-18.95 571.45 0 567.2 0 567.2-24.35ZM580.9-24.95L580.9-24.95Q584-24.95 585.65-23.28 587.3-21.6 587.35-18.25L587.35-18.25 587.35 0 583.25 0 583.25-17.05Q583.25-19.4 582.3-20.38 581.35-21.35 579.45-21.35L579.45-21.35Q578.2-21.35 577.02-20.95 575.85-20.55 574.42-19.65 573-18.75 570.95-17.25L570.95-17.25 570.65-20.25Q573.3-22.6 575.8-23.78 578.3-24.95 580.9-24.95ZM622.5-24.95L622.5-24.95Q625.2-24.95 627.07-24.23 628.95-23.5 629.9-21.8 630.85-20.1 630.85-17.15L630.85-17.15 630.85 0 627.5 0 626.85-5.3 626.55-5.85 626.55-17.15Q626.55-19.4 625.52-20.38 624.5-21.35 621.6-21.35L621.6-21.35Q619.7-21.35 616.82-21.15 613.95-20.95 611.15-20.7L611.15-20.7 610.75-23.85Q612.45-24.15 614.47-24.4 616.5-24.65 618.6-24.8 620.7-24.95 622.5-24.95ZM616.4-15L628.85-15 628.8-11.8 617.15-11.75Q615.4-11.7 614.7-10.83 614-9.95 614-8.4L614-8.4 614-6.85Q614-4.95 614.9-4.08 615.8-3.2 617.8-3.2L617.8-3.2Q619.2-3.2 620.97-3.73 622.75-4.25 624.55-5.35 626.35-6.45 627.85-8.15L627.85-8.15 627.85-5Q627.3-4.3 626.27-3.38 625.25-2.45 623.82-1.58 622.4-0.7 620.67-0.13 618.95 0.45 616.95 0.45L616.95 0.45Q614.8 0.45 613.15-0.33 611.5-1.1 610.57-2.63 609.65-4.15 609.65-6.35L609.65-6.35 609.65-9Q609.65-11.85 611.42-13.43 613.2-15 616.4-15L616.4-15ZM653.25-24.95L653.25-24.95Q659.85-24.95 659.85-18.25L659.85-18.25 659.85 0 655.6 0 655.6-17.05Q655.6-19.5 654.8-20.43 654-21.35 652.1-21.35L652.1-21.35Q649.85-21.35 647.6-20.25 645.35-19.15 642.25-17.25L642.25-17.25 642.05-20.3Q644.9-22.5 647.7-23.73 650.5-24.95 653.25-24.95ZM638.45-24.35L642.05-24.35 642.4-19.7 642.7-18.95 642.7 0 638.45 0 638.45-24.35ZM677.8-24.95L677.8-24.95Q682-24.95 684.52-23.7 687.05-22.45 688.15-19.63 689.25-16.8 689.25-12.15L689.25-12.15Q689.25-7.5 688.15-4.67 687.05-1.85 684.52-0.6 682 0.65 677.8 0.65L677.8 0.65Q673.65 0.65 671.12-0.6 668.6-1.85 667.47-4.67 666.35-7.5 666.35-12.15L666.35-12.15Q666.35-16.8 667.47-19.63 668.6-22.45 671.12-23.7 673.65-24.95 677.8-24.95ZM677.8-21.35L677.8-21.35Q675.15-21.35 673.62-20.53 672.1-19.7 671.45-17.7 670.8-15.7 670.8-12.15L670.8-12.15Q670.8-8.6 671.45-6.6 672.1-4.6 673.62-3.78 675.15-2.95 677.8-2.95L677.8-2.95Q680.45-2.95 682-3.78 683.55-4.6 684.2-6.6 684.85-8.6 684.85-12.15L684.85-12.15Q684.85-15.7 684.2-17.7 683.55-19.7 682-20.53 680.45-21.35 677.8-21.35ZM704-24.95L704-24.95Q705.6-24.95 707.4-24.85 709.2-24.75 710.97-24.6 712.75-24.45 714.25-24.2L714.25-24.2 713.9-21.1Q711.6-21.2 709.27-21.28 706.95-21.35 704.65-21.35L704.65-21.35Q702.4-21.4 701.1-21.25 699.8-21.1 699.22-20.45 698.65-19.8 698.65-18.25L698.65-18.25Q698.65-16.35 699.55-15.75 700.45-15.15 702.2-14.75L702.2-14.75 709.3-13.15Q712.2-12.45 713.57-11 714.95-9.55 714.95-6.45L714.95-6.45Q714.95-3.45 713.82-1.95 712.7-0.45 710.4 0.05 708.1 0.55 704.55 0.55L704.55 0.55Q703.25 0.55 700.67 0.45 698.1 0.35 695-0.15L695-0.15 695.3-3.25Q696.5-3.2 697.85-3.13 699.2-3.05 700.67-3.05 702.15-3.05 703.7-3.05L703.7-3.05Q706.45-3.05 708-3.3 709.55-3.55 710.2-4.28 710.85-5 710.85-6.45L710.85-6.45Q710.85-8.25 709.8-8.85 708.75-9.45 707-9.85L707-9.85 700-11.45Q698-11.95 696.8-12.78 695.6-13.6 695.05-14.93 694.5-16.25 694.5-18.25L694.5-18.25Q694.5-21.1 695.5-22.55 696.5-24 698.6-24.5 700.7-25 704-24.95Z" opacity="1" transform="matrix(1,0,0,1,0,0)" fill="#ffffff" class="slogan-text-1" data-fill-palette-color="quaternary" id="text-1"></path></svg></g></svg></g></svg></g></svg></g><g transform="matrix(1,0,0,1,75.67465651181357,0)"><svg viewBox="0 0 61.80912820352999 59.99816448761513" height="59.99816448761513" width="61.80912820352999"><g><svg xmlns="http://www.w3.org/2000/svg" xmlns:xlink="http://www.w3.org/1999/xlink" version="1.1" x="0" y="0" viewBox="0.8380546616846237 2.1335423060221044 88.32147973619097 85.73372288235758" enable-background="new 0 0 90 90" xml:space="preserve" height="59.99816448761513" width="61.80912820352999" class="icon-icon-0" data-fill-palette-color="quaternary" id="icon-0"><g fill="#ffffff" data-fill-palette-color="quaternary"><path d="M21.125 84.773l-0.111-0.091-0.035-0.034-0.069-0.07-0.14-0.137-0.276-0.271c-1.461-1.456-2.997-2.879-4.282-4.456l-2.006-2.319-1.897-2.353-3.768-4.706c-1.223-1.545-2.51-3.045-3.824-4.575-0.311-0.362-0.624-0.737-0.938-1.106C6.319 75.15 9.571 82.563 9.571 82.563s5.03 1.603 12.612 3.05l-0.468-0.37L21.125 84.773z" fill="#ffffff" data-fill-palette-color="quaternary"></path></g><g fill="#ffffff" data-fill-palette-color="quaternary"><path d="M61.954 85.201c-0.145-0.088-0.248-0.135-0.431-0.258l-0.396-0.271-1.587-1.091c-1.053-0.731-2.157-1.435-3.094-2.245l-1.46-1.183-0.731-0.592-0.367-0.294-0.182-0.149-0.125-0.108-0.087-0.08c-0.938-0.863-1.895-1.703-2.813-2.589-0.891-0.914-1.831-1.77-2.688-2.739-0.849-0.958-1.77-1.913-2.536-2.882l-1.197-1.448-0.298-0.363c-0.146-0.174-0.201-0.271-0.306-0.41l-0.561-0.777c-1.469-2.085-3.078-4.114-4.334-6.309l-1.998-3.242c-0.661-1.084-1.258-2.178-1.89-3.267l-3.718-6.538-0.924-1.637-0.231-0.407-0.229-0.373-0.477-0.776c-0.319-0.513-0.625-1.037-0.957-1.544l-1.023-1.508c-0.663-1.017-1.435-1.97-2.146-2.958-0.758-0.961-1.512-1.922-2.29-2.878-1.552-1.906-3.171-3.778-4.825-5.637l-4.97-5.567-2.462-2.791-2.578-2.732-1.819-1.923c-0.64 1.194-1.217 2.417-1.728 3.663l0.052 0.131 0.146 0.385 0.584 1.542 1.16 3.087c0.772 2.064 1.53 4.115 2.269 6.169l1.108 3.087 0.553 1.542 0.586 1.502 2.396 6.087 2.496 6.043 2.633 5.964c0.874 1.994 1.899 3.934 2.857 5.893 0.96 1.965 1.978 3.867 3.015 5.804l3.116 5.755c1.052 1.912 2.191 3.757 3.28 5.641 1.11 1.87 2.346 3.684 3.537 5.513 0.468 0.689 0.999 1.369 1.518 2.049 8.599 0.715 18.21 0.552 27.049-1.762-0.03-0.019-0.06-0.031-0.087-0.052L61.954 85.201z" fill="#ffffff" data-fill-palette-color="quaternary"></path></g><g fill="#ffffff" data-fill-palette-color="quaternary"><path d="M36.896 6.962l0.744 1.044 0.699 1.045c0.926 1.394 1.858 2.773 2.814 4.127 0.944 1.36 1.876 2.719 2.831 4.043 0.964 1.271 1.886 2.822 2.627 4.237 0.799 1.47 1.417 2.803 2.231 4.192l0.564 0.987 0.62 1.003c0.408 0.667 0.816 1.333 1.221 1.994 0.811 1.311 1.596 2.61 2.408 3.836 0.402 0.61 0.805 1.215 1.204 1.817 0.392 0.603 0.862 1.203 1.287 1.799 3.393 4.707 6.768 9.093 10.174 12.786 1.609 1.904 3.405 3.648 5.03 5.329 0.821 0.823 1.622 1.629 2.403 2.411 0.781 0.785 1.526 1.551 2.267 2.243 1.477 1.394 2.95 2.622 4.316 3.521 0.376 0.229 0.773 0.443 1.147 0.663l0.28 0.16 0.069 0.039c-0.008-0.002 0.067 0.033-0.008 0l0.037 0.017 0.141 0.071c0.188 0.093 0.375 0.188 0.56 0.279 0.734 0.364 1.438 0.713 2.105 1.042 0.954 0.454 1.842 0.851 2.662 1.199 3.89-9.646 1.544-21.1-6.693-28.38-7.436-6.583-17.646-7.983-26.263-4.484 2.417-8.97-0.217-18.933-7.657-25.512-3.866-3.421-8.483-5.44-13.239-6.1 0.665 0.83 1.311 1.672 1.938 2.521C35.912 5.585 36.404 6.276 36.896 6.962z" fill="#ffffff" data-fill-palette-color="quaternary"></path></g><g fill="#ffffff" data-fill-palette-color="quaternary"><path d="M81.785 66.365c-0.194-0.075-0.393-0.152-0.593-0.233l-0.149-0.056-0.038-0.015-0.079-0.037-0.072-0.034-0.296-0.135c-0.395-0.184-0.796-0.355-1.212-0.562-1.766-0.921-3.403-2.095-5.058-3.472-0.835-0.679-1.648-1.409-2.484-2.146-0.414-0.367-0.837-0.74-1.262-1.117-0.212-0.189-0.424-0.378-0.636-0.568-0.223-0.207-0.445-0.414-0.67-0.622-1.706-1.621-3.541-3.225-5.333-5.188-0.885-0.969-1.859-1.921-2.723-2.964-0.882-1.033-1.777-2.087-2.69-3.159-0.917-1.068-1.733-2.248-2.62-3.403-0.438-0.594-0.866-1.14-1.326-1.787-0.412-0.599-0.832-1.199-1.234-1.817-0.404-0.624-0.825-1.209-1.223-1.877-0.398-0.662-0.799-1.33-1.204-2-0.775-1.345-1.468-2.731-2.19-4.111-0.349-0.692-0.7-1.386-1.053-2.084l-0.524-1.053c-0.214-0.433-0.342-0.738-0.517-1.115-0.666-1.403-1.263-3.027-1.877-4.447-0.293-0.75-0.634-1.441-0.98-2.141l-0.258-0.529c-0.058-0.125-0.196-0.334-0.292-0.498l-0.634-1.047c-0.837-1.404-1.714-2.797-2.587-4.204-0.865-1.41-1.761-2.816-2.675-4.218L36.615 8.67l-0.701-1.02c-0.47-0.7-0.971-1.366-1.463-2.045-0.873-1.168-1.783-2.318-2.748-3.413-2.417-0.165-4.852 0.02-7.22 0.546 0.199 1.508 0.5 3.062 0.91 4.446 0.576 1.601 1.147 3.201 1.716 4.797 1.246 3.136 2.449 6.252 3.796 9.32 0.333 0.764 0.646 1.544 0.987 2.294 0.356 0.736 0.711 1.47 1.065 2.205 0.348 0.714 0.719 1.507 1.047 2.149 0.419 0.72 0.837 1.437 1.256 2.151 1.657 2.898 3.377 5.544 5.037 8.344 0.825 1.403 1.694 2.727 2.46 4.166 0.385 0.717 0.766 1.431 1.146 2.144l0.572 1.066 0.3 0.571 0.237 0.531c0.636 1.386 1.25 2.872 1.824 4.307 0.541 1.419 1.076 2.816 1.601 4.199 1.042 2.747 2.076 5.403 3.156 7.863 0.267 0.619 0.526 1.236 0.825 1.792l0.429 0.854 0.105 0.212 0.054 0.106 0.025 0.053c0.006 0.009 0.002 0.007 0-0.002l0.257 0.423c0.712 1.121 1.374 2.299 2.089 3.314 0.707 1.016 1.403 2.013 2.081 2.986 0.741 0.96 1.465 1.9 2.17 2.817 0.692 0.927 1.433 1.782 2.126 2.638 0.701 0.848 1.366 1.687 2.044 2.471 0.687 0.78 1.348 1.535 1.989 2.266 0.375 0.435 0.741 0.857 1.105 1.27 6.049-2.125 11.571-5.424 15.933-10.354 1.652-1.867 2.968-3.913 3.973-6.062-0.854-0.244-1.774-0.536-2.763-0.885C83.323 66.936 82.561 66.678 81.785 66.365z" fill="#ffffff" data-fill-palette-color="quaternary"></path></g><g fill="#ffffff" data-fill-palette-color="quaternary"><path d="M13.55 19.446l2.569 2.795 5.067 5.615c1.682 1.879 3.343 3.794 4.962 5.767 0.814 0.981 1.579 2.014 2.354 3.028 0.738 1.058 1.524 2.067 2.213 3.16l1.06 1.62c0.345 0.545 0.663 1.11 0.995 1.665l0.494 0.834 0.253 0.432 0.225 0.412 0.895 1.651c1.2 2.199 2.381 4.408 3.554 6.614 0.596 1.096 1.165 2.217 1.777 3.295l1.85 3.213c0.61 1.074 1.222 2.152 1.921 3.152l2.022 3.069 0.503 0.771c0.079 0.115 0.186 0.285 0.239 0.355l0.284 0.374 1.136 1.496c0.745 1.03 1.54 1.907 2.311 2.857 0.771 0.939 1.631 1.832 2.442 2.753 0.837 0.9 1.722 1.76 2.584 2.643l0.079 0.083 0.02 0.019c0.016 0.015-0.053-0.045-0.014-0.011l0.044 0.042 0.175 0.155 0.349 0.312 0.697 0.631 1.397 1.258c0.915 0.881 1.886 1.586 2.845 2.348l0.917 0.717c-0.705-0.704-1.404-1.452-2.14-2.209-0.774-0.812-1.585-1.636-2.353-2.547-0.782-0.896-1.585-1.817-2.407-2.758-0.789-1.006-1.597-2.03-2.422-3.081-0.812-1.057-1.485-2.148-2.26-3.257l-0.283-0.415-0.071-0.114-0.031-0.061-0.067-0.118-0.131-0.231c-0.174-0.312-0.352-0.629-0.528-0.943-0.373-0.634-0.677-1.271-0.986-1.913-1.272-2.568-2.34-5.255-3.469-7.99-0.557-1.361-1.121-2.742-1.694-4.14-0.561-1.366-1.092-2.722-1.749-4.152l-0.235-0.528-0.245-0.46-0.533-1.001c-0.354-0.668-0.711-1.338-1.07-2.015-0.729-1.35-1.546-2.737-2.324-4.12-1.548-2.778-3.327-5.662-4.857-8.57-0.395-0.729-0.79-1.458-1.186-2.193-0.407-0.849-0.713-1.583-1.073-2.384-0.349-0.786-0.701-1.573-1.049-2.362-0.332-0.791-0.615-1.59-0.923-2.388-0.586-1.608-1.249-3.179-1.777-4.832-0.538-1.641-1.072-3.288-1.613-4.937-0.454-1.666-0.908-3.332-1.364-5.001-0.332-1.556-0.504-3.029-0.6-4.539-4.213 1.335-8.132 3.791-11.277 7.347-0.99 1.118-1.892 2.282-2.715 3.484l2.58 2.619L13.55 19.446z" fill="#ffffff" data-fill-palette-color="quaternary"></path></g><g fill="#ffffff" data-fill-palette-color="quaternary"><path d="M7.05 63.706c1.348 1.473 2.722 2.981 4.039 4.544l3.841 4.627 1.914 2.307 1.965 2.205c1.268 1.527 2.731 2.793 4.083 4.194l0.26 0.258 0.129 0.129 0.065 0.063 0.019 0.019 0.563 0.452 1.173 0.941c0.391 0.335 0.782 0.588 1.175 0.857l1.171 0.81c0.782 0.536 1.641 1.16 2.455 1.744 1.28 0.168 2.6 0.323 3.947 0.455-0.258-0.364-0.515-0.73-0.756-1.117l-1.702-2.802c-0.562-0.936-1.179-1.836-1.71-2.8-1.079-1.911-2.197-3.808-3.247-5.729l-3.177-5.739c-1.025-1.915-2.142-3.825-3.145-5.764l-1.536-2.896c-0.511-0.966-1.057-1.911-1.532-2.904l-2.937-5.9-2.79-5.952-2.725-5.976-0.688-1.516-0.632-1.512-1.266-3.021L3.487 27.65l-0.642-1.538c-2.97 10.583-2.243 22.277-0.4 32.269l0.696 0.856C4.381 60.75 5.695 62.223 7.05 63.706z" fill="#ffffff" data-fill-palette-color="quaternary"></path></g></svg></g></svg></g><g></g></svg></g></svg></g></svg></g></svg></g><defs></defs><mask id="65750870-1369-40a3-ac81-068fe2b63b09"><g id="SvgjsG1468"><svg viewBox="0 0 342.85155851775386 342.85155851775386" height="342.85155851775386" width="342.85155851775386"><g><svg></svg></g><g><svg viewBox="0 0 342.85155851775386 342.85155851775386" height="342.85155851775386" width="342.85155851775386"><g><path d="M0 171.426c0-94.676 76.75-171.426 171.426-171.426 94.676 0 171.426 76.75 171.426 171.426 0 94.676-76.75 171.426-171.426 171.426-94.676 0-171.426-76.75-171.426-171.426zM171.426 340.67c93.471 0 169.244-75.773 169.244-169.244 0-93.471-75.773-169.244-169.244-169.244-93.471 0-169.244 75.773-169.244 169.244 0 93.471 75.773 169.244 169.244 169.244z" fill="white" stroke="transparent"></path><ellipse rx="164.56874808852186" ry="164.56874808852186" cx="171.42577925887693" cy="171.42577925887693" fill="white" stroke="transparent" stroke-width="0" fill-opacity="1"></ellipse></g><g transform="matrix(1,0,0,1,64.84655864529837,116.86383587405936)"><svg viewBox="0 0 213.1584412271571 109.12388676963515" height="109.12388676963515" width="213.1584412271571"><g><svg viewBox="0 0 213.1584412271571 109.12388676963515" height="109.12388676963515" width="213.1584412271571"><g><svg viewBox="0 0 213.1584412271571 109.12388676963515" height="109.12388676963515" width="213.1584412271571"><g transform="matrix(1,0,0,1,0,65.70987483937819)"><svg viewBox="0 0 213.1584412271571 43.41401193025696" height="43.41401193025696" width="213.1584412271571"><g id="SvgjsG1467"><svg viewBox="0 0 213.1584412271571 43.41401193025696" height="43.41401193025696" width="213.1584412271571" id="SvgjsSvg1466"><g><svg viewBox="0 0 213.1584412271571 24.194371099828242" height="24.194371099828242" width="213.1584412271571"><g transform="matrix(1,0,0,1,0,0)"><svg width="213.1584412271571" viewBox="1.45 -35.75 318.03000000000003 36.1" height="24.194371099828242" data-palette-color="#ffffff"><path d="M27.2-31.7L25.1-28.05Q24.5-28.75 23.5-29.4 22.5-30.05 21.25-30.58 20-31.1 18.53-31.43 17.05-31.75 15.45-31.75L15.45-31.75Q11.35-31.75 9.4-30.2 7.45-28.65 7.45-25.95L7.45-25.95Q7.45-24.05 8.45-22.95 9.45-21.85 11.53-21.15 13.6-20.45 16.8-19.7L16.8-19.7Q20.5-18.9 23.2-17.75 25.9-16.6 27.35-14.68 28.8-12.75 28.8-9.55L28.8-9.55Q28.8-7 27.83-5.13 26.85-3.25 25.1-2.02 23.35-0.8 21-0.23 18.65 0.35 15.9 0.35L15.9 0.35Q13.2 0.35 10.63-0.23 8.05-0.8 5.75-1.9 3.45-3 1.45-4.65L1.45-4.65 3.6-8.45Q4.4-7.6 5.68-6.78 6.95-5.95 8.58-5.25 10.2-4.55 12.1-4.13 14-3.7 16-3.7L16-3.7Q19.8-3.7 21.9-5.08 24-6.45 24-9.1L24-9.1Q24-11.1 22.83-12.3 21.65-13.5 19.35-14.3 17.05-15.1 13.75-15.9L13.75-15.9Q10.15-16.8 7.7-17.88 5.25-18.95 4.03-20.7 2.8-22.45 2.8-25.25L2.8-25.25Q2.8-28.65 4.45-31 6.1-33.35 9-34.55 11.9-35.75 15.55-35.75L15.55-35.75Q17.95-35.75 20.03-35.25 22.1-34.75 23.9-33.85 25.7-32.95 27.2-31.7L27.2-31.7ZM53.05-19.85L46.9-35.3 51.15-35.3 55.85-22.95 60.6-35.3 64.85-35.3 58.7-19.85 64.8-5.2 76.8-35.5 81.7-35.5 66.85 0 62.95 0 55.9-16.75 48.8 0 44.9 0 30.1-35.5 34.95-35.5 47-5.2 53.05-19.85ZM90.84-4L110.44-4 110.44 0 86.34 0 86.34-35.5 110-35.5 110-31.5 90.84-31.5 90.84-20 107.5-20 107.5-16.25 90.84-16.25 90.84-4ZM121.09-4L140.69-4 140.69 0 116.59 0 116.59-35.5 140.24-35.5 140.24-31.5 121.09-31.5 121.09-20 137.74-20 137.74-16.25 121.09-16.25 121.09-4ZM172.44-35.5L172.44-31.5 160.19-31.5 160.19 0 155.69 0 155.69-31.5 143.44-31.5 143.44-35.5 172.44-35.5ZM186.04 0L186.04-3.5 208.94-31.5 186.49-31.5 186.49-35.5 214.19-35.5 214.19-32 191.69-4 214.19-4 214.19 0 186.04 0ZM233.88 0.25L233.88 0.25Q230.13 0.25 227.08-1.25 224.03-2.75 221.81-5.33 219.58-7.9 218.38-11.13 217.18-14.35 217.18-17.75L217.18-17.75Q217.18-21.3 218.46-24.53 219.73-27.75 222.01-30.28 224.28-32.8 227.33-34.27 230.38-35.75 233.98-35.75L233.98-35.75Q237.73-35.75 240.78-34.2 243.83-32.65 246.03-30.05 248.23-27.45 249.43-24.25 250.63-21.05 250.63-17.7L250.63-17.7Q250.63-14.15 249.38-10.93 248.13-7.7 245.86-5.18 243.58-2.65 240.53-1.2 237.48 0.25 233.88 0.25ZM221.73-17.75L221.73-17.75Q221.73-15.05 222.61-12.53 223.48-10 225.08-8.05 226.68-6.1 228.93-4.95 231.18-3.8 233.93-3.8L233.93-3.8Q236.78-3.8 239.03-5 241.28-6.2 242.86-8.2 244.43-10.2 245.26-12.7 246.08-15.2 246.08-17.75L246.08-17.75Q246.08-20.45 245.21-22.95 244.33-25.45 242.71-27.43 241.08-29.4 238.86-30.53 236.63-31.65 233.93-31.65L233.93-31.65Q231.08-31.65 228.83-30.48 226.58-29.3 225.01-27.3 223.43-25.3 222.58-22.83 221.73-20.35 221.73-17.75ZM282.78 0L261.38-27.2 261.38 0 256.88 0 256.88-35.5 260.68-35.5 282.38-7.75 282.38-35.45 286.88-35.45 286.88 0 282.78 0ZM299.88-4L319.48-4 319.48 0 295.38 0 295.38-35.5 319.03-35.5 319.03-31.5 299.88-31.5 299.88-20 316.53-20 316.53-16.25 299.88-16.25 299.88-4Z" opacity="1" transform="matrix(1,0,0,1,0,0)" fill="black" class="wordmark-text-0" id="SvgjsPath1465"></path></svg></g></svg></g><g transform="matrix(1,0,0,1,0,29.906081451591294)"><svg viewBox="0 0 213.1584412271571 13.50793047866567" height="13.50793047866567" width="213.1584412271571"><g transform="matrix(1,0,0,1,0,0)"><svg width="213.1584412271571" viewBox="4.05 -35 710.9000000000001 45.050000000000004" height="13.50793047866567" data-palette-color="#ffffff"><path d="M10.7-34.55L10.7-34.55Q13.2-34.55 15.73-34.55 18.25-34.55 20.73-34.48 23.2-34.4 25.5-34.25L25.5-34.25 25.3-30.8 11.45-30.8Q9.9-30.8 9.18-30.03 8.45-29.25 8.45-27.5L8.45-27.5 8.45-7Q8.45-5.25 9.18-4.45 9.9-3.65 11.45-3.65L11.45-3.65 25.3-3.65 25.5-0.25Q23.2-0.1 20.73-0.05 18.25 0 15.73 0.03 13.2 0.05 10.7 0.05L10.7 0.05Q7.65 0.05 5.88-1.58 4.1-3.2 4.05-5.95L4.05-5.95 4.05-28.55Q4.1-31.35 5.88-32.95 7.65-34.55 10.7-34.55ZM4.95-16.45L4.95-20 23.35-20 23.35-16.45 4.95-16.45ZM40-24.95L40-24.95Q41.6-24.95 43.4-24.85 45.2-24.75 46.98-24.6 48.75-24.45 50.25-24.2L50.25-24.2 49.9-21.1Q47.6-21.2 45.28-21.28 42.95-21.35 40.65-21.35L40.65-21.35Q38.4-21.4 37.1-21.25 35.8-21.1 35.23-20.45 34.65-19.8 34.65-18.25L34.65-18.25Q34.65-16.35 35.55-15.75 36.45-15.15 38.2-14.75L38.2-14.75 45.3-13.15Q48.2-12.45 49.58-11 50.95-9.55 50.95-6.45L50.95-6.45Q50.95-3.45 49.83-1.95 48.7-0.45 46.4 0.05 44.1 0.55 40.55 0.55L40.55 0.55Q39.25 0.55 36.68 0.45 34.1 0.35 31-0.15L31-0.15 31.3-3.25Q32.5-3.2 33.85-3.13 35.2-3.05 36.68-3.05 38.15-3.05 39.7-3.05L39.7-3.05Q42.45-3.05 44-3.3 45.55-3.55 46.2-4.28 46.85-5 46.85-6.45L46.85-6.45Q46.85-8.25 45.8-8.85 44.75-9.45 43-9.85L43-9.85 36-11.45Q34-11.95 32.8-12.78 31.6-13.6 31.05-14.93 30.5-16.25 30.5-18.25L30.5-18.25Q30.5-21.1 31.5-22.55 32.5-24 34.6-24.5 36.7-25 40-24.95ZM59.15-31.55L63.4-31.55 63.4-6.7Q63.4-4.95 64.15-4.2 64.9-3.45 66.7-3.45L66.7-3.45 70.4-3.45 70.9-0.2Q70.1 0 69.05 0.15 68 0.3 67 0.38 66 0.45 65.4 0.45L65.4 0.45Q62.35 0.45 60.75-1.25 59.15-2.95 59.15-6.15L59.15-6.15 59.15-31.55ZM59.55-24.35L71.15-24.35 71.15-21 54.75-21 54.75-24.1 59.55-24.35ZM76.55-24.35L80.75-24.35 80.75 0 76.55 0 76.55-24.35ZM77.65-34.7L79.65-34.7Q80.95-34.7 80.95-33.4L80.95-33.4 80.95-30.55Q80.95-29.25 79.65-29.25L79.65-29.25 77.65-29.25Q76.35-29.25 76.35-30.55L76.35-30.55 76.35-33.4Q76.35-34.7 77.65-34.7L77.65-34.7ZM88.8-35L93.05-35 93-6.7Q93-5.1 93.88-4.28 94.75-3.45 96.35-3.45L96.35-3.45 98.7-3.45 99.2-0.2Q98.75 0 97.93 0.15 97.1 0.3 96.23 0.38 95.35 0.45 94.75 0.45L94.75 0.45Q92.05 0.45 90.43-1.15 88.8-2.75 88.8-5.75L88.8-5.75 88.8-35ZM113.9-24.95L113.9-24.95Q118.1-24.95 120.63-23.7 123.15-22.45 124.25-19.63 125.35-16.8 125.35-12.15L125.35-12.15Q125.35-7.5 124.25-4.67 123.15-1.85 120.63-0.6 118.1 0.65 113.9 0.65L113.9 0.65Q109.75 0.65 107.23-0.6 104.7-1.85 103.58-4.67 102.45-7.5 102.45-12.15L102.45-12.15Q102.45-16.8 103.58-19.63 104.7-22.45 107.23-23.7 109.75-24.95 113.9-24.95ZM113.9-21.35L113.9-21.35Q111.25-21.35 109.73-20.53 108.2-19.7 107.55-17.7 106.9-15.7 106.9-12.15L106.9-12.15Q106.9-8.6 107.55-6.6 108.2-4.6 109.73-3.78 111.25-2.95 113.9-2.95L113.9-2.95Q116.55-2.95 118.1-3.78 119.65-4.6 120.3-6.6 120.95-8.6 120.95-12.15L120.95-12.15Q120.95-15.7 120.3-17.7 119.65-19.7 118.1-20.53 116.55-21.35 113.9-21.35ZM153.15-24.95L153.15-24.95Q158.65-24.95 161.13-22.95 163.6-20.95 163.6-17L163.6-17Q163.65-13.75 162.25-11.93 160.85-10.1 157.8-10.1L157.8-10.1 143.6-10.1 143.6-13.4 156.7-13.4Q158.35-13.4 158.85-14.53 159.35-15.65 159.35-17L159.35-17Q159.3-19.35 157.95-20.35 156.6-21.35 153.35-21.35L153.35-21.35Q150.7-21.35 149.18-20.58 147.65-19.8 147.03-17.88 146.4-15.95 146.4-12.5L146.4-12.5Q146.4-8.6 147.18-6.55 147.95-4.5 149.65-3.75 151.35-3 154.15-3L154.15-3Q156.1-3 158.43-3.18 160.75-3.35 162.6-3.6L162.6-3.6 163.05-0.75Q161.9-0.3 160.23 0 158.55 0.3 156.78 0.45 155 0.6 153.6 0.6L153.6 0.6Q149.4 0.6 146.85-0.68 144.3-1.95 143.13-4.78 141.95-7.6 141.95-12.25L141.95-12.25Q141.95-17.05 143.13-19.83 144.3-22.6 146.78-23.78 149.25-24.95 153.15-24.95ZM184.8-24.95L184.8-24.95Q191.4-24.95 191.4-18.25L191.4-18.25 191.4 0 187.15 0 187.15-17.05Q187.15-19.5 186.35-20.43 185.55-21.35 183.65-21.35L183.65-21.35Q181.4-21.35 179.15-20.25 176.9-19.15 173.8-17.25L173.8-17.25 173.6-20.3Q176.45-22.5 179.25-23.73 182.05-24.95 184.8-24.95ZM170-24.35L173.6-24.35 173.95-19.7 174.25-18.95 174.25 0 170 0 170-24.35ZM210.25-35L214.5-35 214.45-6.7Q214.45-5.1 215.33-4.28 216.2-3.45 217.8-3.45L217.8-3.45 220.15-3.45 220.65-0.2Q220.2 0 219.38 0.15 218.55 0.3 217.68 0.38 216.8 0.45 216.2 0.45L216.2 0.45Q213.5 0.45 211.88-1.15 210.25-2.75 210.25-5.75L210.25-5.75 210.25-35ZM236.55-24.95L236.55-24.95Q239.25-24.95 241.13-24.23 243-23.5 243.95-21.8 244.9-20.1 244.9-17.15L244.9-17.15 244.9 0 241.55 0 240.9-5.3 240.6-5.85 240.6-17.15Q240.6-19.4 239.58-20.38 238.55-21.35 235.65-21.35L235.65-21.35Q233.75-21.35 230.88-21.15 228-20.95 225.2-20.7L225.2-20.7 224.8-23.85Q226.5-24.15 228.53-24.4 230.55-24.65 232.65-24.8 234.75-24.95 236.55-24.95ZM230.45-15L242.9-15 242.85-11.8 231.2-11.75Q229.45-11.7 228.75-10.83 228.05-9.95 228.05-8.4L228.05-8.4 228.05-6.85Q228.05-4.95 228.95-4.08 229.85-3.2 231.85-3.2L231.85-3.2Q233.25-3.2 235.03-3.73 236.8-4.25 238.6-5.35 240.4-6.45 241.9-8.15L241.9-8.15 241.9-5Q241.35-4.3 240.33-3.38 239.3-2.45 237.88-1.58 236.45-0.7 234.73-0.13 233 0.45 231 0.45L231 0.45Q228.85 0.45 227.2-0.33 225.55-1.1 224.63-2.63 223.7-4.15 223.7-6.35L223.7-6.35 223.7-9Q223.7-11.85 225.48-13.43 227.25-15 230.45-15L230.45-15ZM277.6-24.95L277.6-24.95Q282.05-24.95 284-21.68 285.95-18.4 285.95-12.05L285.95-12.05Q285.95-7.35 284.95-4.58 283.95-1.8 281.93-0.6 279.9 0.6 276.75 0.6L276.75 0.6Q274.35 0.6 272.02-0.05 269.7-0.7 267.5-2.05L267.5-2.05 267.75-4.6Q270.1-3.95 271.9-3.53 273.7-3.1 275.7-3.1L275.7-3.1Q277.85-3.1 279.13-3.85 280.4-4.6 281-6.55 281.6-8.5 281.6-12.05L281.6-12.05Q281.6-15.5 281.05-17.5 280.5-19.5 279.32-20.38 278.15-21.25 276.2-21.25L276.2-21.25Q274.2-21.25 272.25-20.3 270.3-19.35 267.7-17.4L267.7-17.4 267.3-20.25Q268.65-21.7 270.35-22.75 272.05-23.8 273.93-24.38 275.8-24.95 277.6-24.95ZM263.65-24.35L267.15-24.35 267.6-19.3 267.9-18.65 267.9-3.05 267.7-2.45Q267.85-1.05 267.88 0.25 267.9 1.55 267.9 3L267.9 3 267.9 10.05 263.65 10.05 263.65-24.35ZM304.15-24.95L304.15-24.95Q306.85-24.95 308.73-24.23 310.6-23.5 311.55-21.8 312.5-20.1 312.5-17.15L312.5-17.15 312.5 0 309.15 0 308.5-5.3 308.2-5.85 308.2-17.15Q308.2-19.4 307.18-20.38 306.15-21.35 303.25-21.35L303.25-21.35Q301.35-21.35 298.48-21.15 295.6-20.95 292.8-20.7L292.8-20.7 292.4-23.85Q294.1-24.15 296.13-24.4 298.15-24.65 300.25-24.8 302.35-24.95 304.15-24.95ZM298.05-15L310.5-15 310.45-11.8 298.8-11.75Q297.05-11.7 296.35-10.83 295.65-9.95 295.65-8.4L295.65-8.4 295.65-6.85Q295.65-4.95 296.55-4.08 297.45-3.2 299.45-3.2L299.45-3.2Q300.85-3.2 302.63-3.73 304.4-4.25 306.2-5.35 308-6.45 309.5-8.15L309.5-8.15 309.5-5Q308.95-4.3 307.93-3.38 306.9-2.45 305.48-1.58 304.05-0.7 302.32-0.13 300.6 0.45 298.6 0.45L298.6 0.45Q296.45 0.45 294.8-0.33 293.15-1.1 292.23-2.63 291.3-4.15 291.3-6.35L291.3-6.35 291.3-9Q291.3-11.85 293.07-13.43 294.85-15 298.05-15L298.05-15ZM320.15-35L324.4-35 324.35-6.7Q324.35-5.1 325.22-4.28 326.1-3.45 327.7-3.45L327.7-3.45 330.05-3.45 330.55-0.2Q330.1 0 329.27 0.15 328.45 0.3 327.57 0.38 326.7 0.45 326.1 0.45L326.1 0.45Q323.4 0.45 321.77-1.15 320.15-2.75 320.15-5.75L320.15-5.75 320.15-35ZM364.6-24.95L364.6-24.95Q367.75-24.95 369.43-23.25 371.1-21.55 371.1-18.25L371.1-18.25 371.1 0 366.9 0 366.9-17.05Q366.85-19.3 366-20.33 365.15-21.35 363.1-21.35L363.1-21.35Q361.8-21.35 360.63-20.93 359.45-20.5 358.05-19.6 356.65-18.7 354.65-17.25L354.65-17.25 354.4-20.25Q357.05-22.6 359.55-23.78 362.05-24.95 364.6-24.95ZM334.95-24.35L338.45-24.35 338.75-19.7 339.2-18.95 339.2 0 334.95 0 334.95-24.35ZM348.65-24.95L348.65-24.95Q351.75-24.95 353.4-23.28 355.05-21.6 355.1-18.25L355.1-18.25 355.1 0 351 0 351-17.05Q351-19.4 350.05-20.38 349.1-21.35 347.2-21.35L347.2-21.35Q345.95-21.35 344.78-20.95 343.6-20.55 342.18-19.65 340.75-18.75 338.7-17.25L338.7-17.25 338.4-20.25Q341.05-22.6 343.55-23.78 346.05-24.95 348.65-24.95ZM390.25-24.95L390.25-24.95Q392.95-24.95 394.83-24.23 396.7-23.5 397.65-21.8 398.6-20.1 398.6-17.15L398.6-17.15 398.6 0 395.25 0 394.6-5.3 394.3-5.85 394.3-17.15Q394.3-19.4 393.28-20.38 392.25-21.35 389.35-21.35L389.35-21.35Q387.45-21.35 384.58-21.15 381.7-20.95 378.9-20.7L378.9-20.7 378.5-23.85Q380.2-24.15 382.23-24.4 384.25-24.65 386.35-24.8 388.45-24.95 390.25-24.95ZM384.15-15L396.6-15 396.55-11.8 384.9-11.75Q383.15-11.7 382.45-10.83 381.75-9.95 381.75-8.4L381.75-8.4 381.75-6.85Q381.75-4.95 382.65-4.08 383.55-3.2 385.55-3.2L385.55-3.2Q386.95-3.2 388.73-3.73 390.5-4.25 392.3-5.35 394.1-6.45 395.6-8.15L395.6-8.15 395.6-5Q395.05-4.3 394.03-3.38 393-2.45 391.58-1.58 390.15-0.7 388.43-0.13 386.7 0.45 384.7 0.45L384.7 0.45Q382.55 0.45 380.9-0.33 379.25-1.1 378.33-2.63 377.4-4.15 377.4-6.35L377.4-6.35 377.4-9Q377.4-11.85 379.18-13.43 380.95-15 384.15-15L384.15-15ZM425.45-24.95L425.45-24.95Q427.85-24.95 430.2-24.33 432.55-23.7 434.7-22.4L434.7-22.4 434.45-19.75Q432.1-20.45 430.3-20.85 428.5-21.25 426.45-21.25L426.45-21.25Q424.35-21.25 423.07-20.53 421.8-19.8 421.2-17.85 420.6-15.9 420.6-12.3L420.6-12.3Q420.6-8.7 421.18-6.7 421.75-4.7 423-3.9 424.25-3.1 426.2-3.1L426.2-3.1Q427.65-3.1 428.82-3.48 430-3.85 431.32-4.7 432.65-5.55 434.45-6.85L434.45-6.85 434.85-3.85Q432.85-2 430.3-0.7 427.75 0.6 424.8 0.6L424.8 0.6Q420.2 0.6 418.22-2.65 416.25-5.9 416.25-12.25L416.25-12.25Q416.25-17 417.25-19.78 418.25-22.55 420.3-23.75 422.35-24.95 425.45-24.95ZM433.9-35L438.15-35 438.15 0 434.85 0 434.35-4.25 433.9-4.6 433.9-21.3 434.2-22.05Q434-23.45 433.95-24.75 433.9-26.05 433.9-27.5L433.9-27.5 433.9-35ZM456-24.95L456-24.95Q461.5-24.95 463.97-22.95 466.45-20.95 466.45-17L466.45-17Q466.5-13.75 465.1-11.93 463.7-10.1 460.65-10.1L460.65-10.1 446.45-10.1 446.45-13.4 459.55-13.4Q461.2-13.4 461.7-14.53 462.2-15.65 462.2-17L462.2-17Q462.15-19.35 460.8-20.35 459.45-21.35 456.2-21.35L456.2-21.35Q453.55-21.35 452.02-20.58 450.5-19.8 449.87-17.88 449.25-15.95 449.25-12.5L449.25-12.5Q449.25-8.6 450.02-6.55 450.8-4.5 452.5-3.75 454.2-3 457-3L457-3Q458.95-3 461.27-3.18 463.6-3.35 465.45-3.6L465.45-3.6 465.9-0.75Q464.75-0.3 463.07 0 461.4 0.3 459.62 0.45 457.85 0.6 456.45 0.6L456.45 0.6Q452.25 0.6 449.7-0.68 447.15-1.95 445.97-4.78 444.8-7.6 444.8-12.25L444.8-12.25Q444.8-17.05 445.97-19.83 447.15-22.6 449.62-23.78 452.1-24.95 456-24.95ZM484.95-31.55L489.2-31.55 489.2-6.7Q489.2-4.95 489.95-4.2 490.7-3.45 492.5-3.45L492.5-3.45 496.2-3.45 496.7-0.2Q495.9 0 494.85 0.15 493.8 0.3 492.8 0.38 491.8 0.45 491.2 0.45L491.2 0.45Q488.15 0.45 486.55-1.25 484.95-2.95 484.95-6.15L484.95-6.15 484.95-31.55ZM485.35-24.35L496.95-24.35 496.95-21 480.55-21 480.55-24.1 485.35-24.35ZM502-24.35L506.25-24.35 506.25-7.25Q506.2-4.95 507.1-4 508-3.05 510.1-3.05L510.1-3.05Q512.15-3.05 514.17-4.03 516.2-5 519.05-6.85L519.05-6.85 519.6-3.9Q516.75-1.65 514.08-0.5 511.4 0.65 508.65 0.65L508.65 0.65Q502 0.65 502-6.05L502-6.05 502-24.35ZM518.6-24.35L522.85-24.35 522.85 0 519.45 0 519.05-4.6 518.6-5.35 518.6-24.35ZM538.75-24.95L538.75-24.95Q540.35-24.95 542.15-24.85 543.95-24.75 545.73-24.6 547.5-24.45 549-24.2L549-24.2 548.65-21.1Q546.35-21.2 544.02-21.28 541.7-21.35 539.4-21.35L539.4-21.35Q537.15-21.4 535.85-21.25 534.55-21.1 533.98-20.45 533.4-19.8 533.4-18.25L533.4-18.25Q533.4-16.35 534.3-15.75 535.2-15.15 536.95-14.75L536.95-14.75 544.05-13.15Q546.95-12.45 548.33-11 549.7-9.55 549.7-6.45L549.7-6.45Q549.7-3.45 548.58-1.95 547.45-0.45 545.15 0.05 542.85 0.55 539.3 0.55L539.3 0.55Q538 0.55 535.42 0.45 532.85 0.35 529.75-0.15L529.75-0.15 530.05-3.25Q531.25-3.2 532.6-3.13 533.95-3.05 535.42-3.05 536.9-3.05 538.45-3.05L538.45-3.05Q541.2-3.05 542.75-3.3 544.3-3.55 544.95-4.28 545.6-5 545.6-6.45L545.6-6.45Q545.6-8.25 544.55-8.85 543.5-9.45 541.75-9.85L541.75-9.85 534.75-11.45Q532.75-11.95 531.55-12.78 530.35-13.6 529.8-14.93 529.25-16.25 529.25-18.25L529.25-18.25Q529.25-21.1 530.25-22.55 531.25-24 533.35-24.5 535.45-25 538.75-24.95ZM596.85-24.95L596.85-24.95Q600-24.95 601.67-23.25 603.35-21.55 603.35-18.25L603.35-18.25 603.35 0 599.15 0 599.15-17.05Q599.1-19.3 598.25-20.33 597.4-21.35 595.35-21.35L595.35-21.35Q594.05-21.35 592.88-20.93 591.7-20.5 590.3-19.6 588.9-18.7 586.9-17.25L586.9-17.25 586.65-20.25Q589.3-22.6 591.8-23.78 594.3-24.95 596.85-24.95ZM567.2-24.35L570.7-24.35 571-19.7 571.45-18.95 571.45 0 567.2 0 567.2-24.35ZM580.9-24.95L580.9-24.95Q584-24.95 585.65-23.28 587.3-21.6 587.35-18.25L587.35-18.25 587.35 0 583.25 0 583.25-17.05Q583.25-19.4 582.3-20.38 581.35-21.35 579.45-21.35L579.45-21.35Q578.2-21.35 577.02-20.95 575.85-20.55 574.42-19.65 573-18.75 570.95-17.25L570.95-17.25 570.65-20.25Q573.3-22.6 575.8-23.78 578.3-24.95 580.9-24.95ZM622.5-24.95L622.5-24.95Q625.2-24.95 627.07-24.23 628.95-23.5 629.9-21.8 630.85-20.1 630.85-17.15L630.85-17.15 630.85 0 627.5 0 626.85-5.3 626.55-5.85 626.55-17.15Q626.55-19.4 625.52-20.38 624.5-21.35 621.6-21.35L621.6-21.35Q619.7-21.35 616.82-21.15 613.95-20.95 611.15-20.7L611.15-20.7 610.75-23.85Q612.45-24.15 614.47-24.4 616.5-24.65 618.6-24.8 620.7-24.95 622.5-24.95ZM616.4-15L628.85-15 628.8-11.8 617.15-11.75Q615.4-11.7 614.7-10.83 614-9.95 614-8.4L614-8.4 614-6.85Q614-4.95 614.9-4.08 615.8-3.2 617.8-3.2L617.8-3.2Q619.2-3.2 620.97-3.73 622.75-4.25 624.55-5.35 626.35-6.45 627.85-8.15L627.85-8.15 627.85-5Q627.3-4.3 626.27-3.38 625.25-2.45 623.82-1.58 622.4-0.7 620.67-0.13 618.95 0.45 616.95 0.45L616.95 0.45Q614.8 0.45 613.15-0.33 611.5-1.1 610.57-2.63 609.65-4.15 609.65-6.35L609.65-6.35 609.65-9Q609.65-11.85 611.42-13.43 613.2-15 616.4-15L616.4-15ZM653.25-24.95L653.25-24.95Q659.85-24.95 659.85-18.25L659.85-18.25 659.85 0 655.6 0 655.6-17.05Q655.6-19.5 654.8-20.43 654-21.35 652.1-21.35L652.1-21.35Q649.85-21.35 647.6-20.25 645.35-19.15 642.25-17.25L642.25-17.25 642.05-20.3Q644.9-22.5 647.7-23.73 650.5-24.95 653.25-24.95ZM638.45-24.35L642.05-24.35 642.4-19.7 642.7-18.95 642.7 0 638.45 0 638.45-24.35ZM677.8-24.95L677.8-24.95Q682-24.95 684.52-23.7 687.05-22.45 688.15-19.63 689.25-16.8 689.25-12.15L689.25-12.15Q689.25-7.5 688.15-4.67 687.05-1.85 684.52-0.6 682 0.65 677.8 0.65L677.8 0.65Q673.65 0.65 671.12-0.6 668.6-1.85 667.47-4.67 666.35-7.5 666.35-12.15L666.35-12.15Q666.35-16.8 667.47-19.63 668.6-22.45 671.12-23.7 673.65-24.95 677.8-24.95ZM677.8-21.35L677.8-21.35Q675.15-21.35 673.62-20.53 672.1-19.7 671.45-17.7 670.8-15.7 670.8-12.15L670.8-12.15Q670.8-8.6 671.45-6.6 672.1-4.6 673.62-3.78 675.15-2.95 677.8-2.95L677.8-2.95Q680.45-2.95 682-3.78 683.55-4.6 684.2-6.6 684.85-8.6 684.85-12.15L684.85-12.15Q684.85-15.7 684.2-17.7 683.55-19.7 682-20.53 680.45-21.35 677.8-21.35ZM704-24.95L704-24.95Q705.6-24.95 707.4-24.85 709.2-24.75 710.97-24.6 712.75-24.45 714.25-24.2L714.25-24.2 713.9-21.1Q711.6-21.2 709.27-21.28 706.95-21.35 704.65-21.35L704.65-21.35Q702.4-21.4 701.1-21.25 699.8-21.1 699.22-20.45 698.65-19.8 698.65-18.25L698.65-18.25Q698.65-16.35 699.55-15.75 700.45-15.15 702.2-14.75L702.2-14.75 709.3-13.15Q712.2-12.45 713.57-11 714.95-9.55 714.95-6.45L714.95-6.45Q714.95-3.45 713.82-1.95 712.7-0.45 710.4 0.05 708.1 0.55 704.55 0.55L704.55 0.55Q703.25 0.55 700.67 0.45 698.1 0.35 695-0.15L695-0.15 695.3-3.25Q696.5-3.2 697.85-3.13 699.2-3.05 700.67-3.05 702.15-3.05 703.7-3.05L703.7-3.05Q706.45-3.05 708-3.3 709.55-3.55 710.2-4.28 710.85-5 710.85-6.45L710.85-6.45Q710.85-8.25 709.8-8.85 708.75-9.45 707-9.85L707-9.85 700-11.45Q698-11.95 696.8-12.78 695.6-13.6 695.05-14.93 694.5-16.25 694.5-18.25L694.5-18.25Q694.5-21.1 695.5-22.55 696.5-24 698.6-24.5 700.7-25 704-24.95Z" opacity="1" transform="matrix(1,0,0,1,0,0)" fill="black" class="slogan-text-1" id="SvgjsPath1464"></path></svg></g></svg></g></svg></g></svg></g><g transform="matrix(1,0,0,1,75.67465651181357,0)"><svg viewBox="0 0 61.80912820352999 59.99816448761513" height="59.99816448761513" width="61.80912820352999"><g><svg xmlns="http://www.w3.org/2000/svg" xmlns:xlink="http://www.w3.org/1999/xlink" version="1.1" x="0" y="0" viewBox="0.8380546616846237 2.1335423060221044 88.32147973619097 85.73372288235758" enable-background="new 0 0 90 90" xml:space="preserve" height="59.99816448761513" width="61.80912820352999" class="icon-icon-0" data-fill-palette-color="quaternary" id="SvgjsSvg1463"><g fill="black"><path d="M21.125 84.773l-0.111-0.091-0.035-0.034-0.069-0.07-0.14-0.137-0.276-0.271c-1.461-1.456-2.997-2.879-4.282-4.456l-2.006-2.319-1.897-2.353-3.768-4.706c-1.223-1.545-2.51-3.045-3.824-4.575-0.311-0.362-0.624-0.737-0.938-1.106C6.319 75.15 9.571 82.563 9.571 82.563s5.03 1.603 12.612 3.05l-0.468-0.37L21.125 84.773z" fill="black"></path></g><g fill="black"><path d="M61.954 85.201c-0.145-0.088-0.248-0.135-0.431-0.258l-0.396-0.271-1.587-1.091c-1.053-0.731-2.157-1.435-3.094-2.245l-1.46-1.183-0.731-0.592-0.367-0.294-0.182-0.149-0.125-0.108-0.087-0.08c-0.938-0.863-1.895-1.703-2.813-2.589-0.891-0.914-1.831-1.77-2.688-2.739-0.849-0.958-1.77-1.913-2.536-2.882l-1.197-1.448-0.298-0.363c-0.146-0.174-0.201-0.271-0.306-0.41l-0.561-0.777c-1.469-2.085-3.078-4.114-4.334-6.309l-1.998-3.242c-0.661-1.084-1.258-2.178-1.89-3.267l-3.718-6.538-0.924-1.637-0.231-0.407-0.229-0.373-0.477-0.776c-0.319-0.513-0.625-1.037-0.957-1.544l-1.023-1.508c-0.663-1.017-1.435-1.97-2.146-2.958-0.758-0.961-1.512-1.922-2.29-2.878-1.552-1.906-3.171-3.778-4.825-5.637l-4.97-5.567-2.462-2.791-2.578-2.732-1.819-1.923c-0.64 1.194-1.217 2.417-1.728 3.663l0.052 0.131 0.146 0.385 0.584 1.542 1.16 3.087c0.772 2.064 1.53 4.115 2.269 6.169l1.108 3.087 0.553 1.542 0.586 1.502 2.396 6.087 2.496 6.043 2.633 5.964c0.874 1.994 1.899 3.934 2.857 5.893 0.96 1.965 1.978 3.867 3.015 5.804l3.116 5.755c1.052 1.912 2.191 3.757 3.28 5.641 1.11 1.87 2.346 3.684 3.537 5.513 0.468 0.689 0.999 1.369 1.518 2.049 8.599 0.715 18.21 0.552 27.049-1.762-0.03-0.019-0.06-0.031-0.087-0.052L61.954 85.201z" fill="black"></path></g><g fill="black"><path d="M36.896 6.962l0.744 1.044 0.699 1.045c0.926 1.394 1.858 2.773 2.814 4.127 0.944 1.36 1.876 2.719 2.831 4.043 0.964 1.271 1.886 2.822 2.627 4.237 0.799 1.47 1.417 2.803 2.231 4.192l0.564 0.987 0.62 1.003c0.408 0.667 0.816 1.333 1.221 1.994 0.811 1.311 1.596 2.61 2.408 3.836 0.402 0.61 0.805 1.215 1.204 1.817 0.392 0.603 0.862 1.203 1.287 1.799 3.393 4.707 6.768 9.093 10.174 12.786 1.609 1.904 3.405 3.648 5.03 5.329 0.821 0.823 1.622 1.629 2.403 2.411 0.781 0.785 1.526 1.551 2.267 2.243 1.477 1.394 2.95 2.622 4.316 3.521 0.376 0.229 0.773 0.443 1.147 0.663l0.28 0.16 0.069 0.039c-0.008-0.002 0.067 0.033-0.008 0l0.037 0.017 0.141 0.071c0.188 0.093 0.375 0.188 0.56 0.279 0.734 0.364 1.438 0.713 2.105 1.042 0.954 0.454 1.842 0.851 2.662 1.199 3.89-9.646 1.544-21.1-6.693-28.38-7.436-6.583-17.646-7.983-26.263-4.484 2.417-8.97-0.217-18.933-7.657-25.512-3.866-3.421-8.483-5.44-13.239-6.1 0.665 0.83 1.311 1.672 1.938 2.521C35.912 5.585 36.404 6.276 36.896 6.962z" fill="black"></path></g><g fill="black"><path d="M81.785 66.365c-0.194-0.075-0.393-0.152-0.593-0.233l-0.149-0.056-0.038-0.015-0.079-0.037-0.072-0.034-0.296-0.135c-0.395-0.184-0.796-0.355-1.212-0.562-1.766-0.921-3.403-2.095-5.058-3.472-0.835-0.679-1.648-1.409-2.484-2.146-0.414-0.367-0.837-0.74-1.262-1.117-0.212-0.189-0.424-0.378-0.636-0.568-0.223-0.207-0.445-0.414-0.67-0.622-1.706-1.621-3.541-3.225-5.333-5.188-0.885-0.969-1.859-1.921-2.723-2.964-0.882-1.033-1.777-2.087-2.69-3.159-0.917-1.068-1.733-2.248-2.62-3.403-0.438-0.594-0.866-1.14-1.326-1.787-0.412-0.599-0.832-1.199-1.234-1.817-0.404-0.624-0.825-1.209-1.223-1.877-0.398-0.662-0.799-1.33-1.204-2-0.775-1.345-1.468-2.731-2.19-4.111-0.349-0.692-0.7-1.386-1.053-2.084l-0.524-1.053c-0.214-0.433-0.342-0.738-0.517-1.115-0.666-1.403-1.263-3.027-1.877-4.447-0.293-0.75-0.634-1.441-0.98-2.141l-0.258-0.529c-0.058-0.125-0.196-0.334-0.292-0.498l-0.634-1.047c-0.837-1.404-1.714-2.797-2.587-4.204-0.865-1.41-1.761-2.816-2.675-4.218L36.615 8.67l-0.701-1.02c-0.47-0.7-0.971-1.366-1.463-2.045-0.873-1.168-1.783-2.318-2.748-3.413-2.417-0.165-4.852 0.02-7.22 0.546 0.199 1.508 0.5 3.062 0.91 4.446 0.576 1.601 1.147 3.201 1.716 4.797 1.246 3.136 2.449 6.252 3.796 9.32 0.333 0.764 0.646 1.544 0.987 2.294 0.356 0.736 0.711 1.47 1.065 2.205 0.348 0.714 0.719 1.507 1.047 2.149 0.419 0.72 0.837 1.437 1.256 2.151 1.657 2.898 3.377 5.544 5.037 8.344 0.825 1.403 1.694 2.727 2.46 4.166 0.385 0.717 0.766 1.431 1.146 2.144l0.572 1.066 0.3 0.571 0.237 0.531c0.636 1.386 1.25 2.872 1.824 4.307 0.541 1.419 1.076 2.816 1.601 4.199 1.042 2.747 2.076 5.403 3.156 7.863 0.267 0.619 0.526 1.236 0.825 1.792l0.429 0.854 0.105 0.212 0.054 0.106 0.025 0.053c0.006 0.009 0.002 0.007 0-0.002l0.257 0.423c0.712 1.121 1.374 2.299 2.089 3.314 0.707 1.016 1.403 2.013 2.081 2.986 0.741 0.96 1.465 1.9 2.17 2.817 0.692 0.927 1.433 1.782 2.126 2.638 0.701 0.848 1.366 1.687 2.044 2.471 0.687 0.78 1.348 1.535 1.989 2.266 0.375 0.435 0.741 0.857 1.105 1.27 6.049-2.125 11.571-5.424 15.933-10.354 1.652-1.867 2.968-3.913 3.973-6.062-0.854-0.244-1.774-0.536-2.763-0.885C83.323 66.936 82.561 66.678 81.785 66.365z" fill="black"></path></g><g fill="black"><path d="M13.55 19.446l2.569 2.795 5.067 5.615c1.682 1.879 3.343 3.794 4.962 5.767 0.814 0.981 1.579 2.014 2.354 3.028 0.738 1.058 1.524 2.067 2.213 3.16l1.06 1.62c0.345 0.545 0.663 1.11 0.995 1.665l0.494 0.834 0.253 0.432 0.225 0.412 0.895 1.651c1.2 2.199 2.381 4.408 3.554 6.614 0.596 1.096 1.165 2.217 1.777 3.295l1.85 3.213c0.61 1.074 1.222 2.152 1.921 3.152l2.022 3.069 0.503 0.771c0.079 0.115 0.186 0.285 0.239 0.355l0.284 0.374 1.136 1.496c0.745 1.03 1.54 1.907 2.311 2.857 0.771 0.939 1.631 1.832 2.442 2.753 0.837 0.9 1.722 1.76 2.584 2.643l0.079 0.083 0.02 0.019c0.016 0.015-0.053-0.045-0.014-0.011l0.044 0.042 0.175 0.155 0.349 0.312 0.697 0.631 1.397 1.258c0.915 0.881 1.886 1.586 2.845 2.348l0.917 0.717c-0.705-0.704-1.404-1.452-2.14-2.209-0.774-0.812-1.585-1.636-2.353-2.547-0.782-0.896-1.585-1.817-2.407-2.758-0.789-1.006-1.597-2.03-2.422-3.081-0.812-1.057-1.485-2.148-2.26-3.257l-0.283-0.415-0.071-0.114-0.031-0.061-0.067-0.118-0.131-0.231c-0.174-0.312-0.352-0.629-0.528-0.943-0.373-0.634-0.677-1.271-0.986-1.913-1.272-2.568-2.34-5.255-3.469-7.99-0.557-1.361-1.121-2.742-1.694-4.14-0.561-1.366-1.092-2.722-1.749-4.152l-0.235-0.528-0.245-0.46-0.533-1.001c-0.354-0.668-0.711-1.338-1.07-2.015-0.729-1.35-1.546-2.737-2.324-4.12-1.548-2.778-3.327-5.662-4.857-8.57-0.395-0.729-0.79-1.458-1.186-2.193-0.407-0.849-0.713-1.583-1.073-2.384-0.349-0.786-0.701-1.573-1.049-2.362-0.332-0.791-0.615-1.59-0.923-2.388-0.586-1.608-1.249-3.179-1.777-4.832-0.538-1.641-1.072-3.288-1.613-4.937-0.454-1.666-0.908-3.332-1.364-5.001-0.332-1.556-0.504-3.029-0.6-4.539-4.213 1.335-8.132 3.791-11.277 7.347-0.99 1.118-1.892 2.282-2.715 3.484l2.58 2.619L13.55 19.446z" fill="black"></path></g><g fill="black"><path d="M7.05 63.706c1.348 1.473 2.722 2.981 4.039 4.544l3.841 4.627 1.914 2.307 1.965 2.205c1.268 1.527 2.731 2.793 4.083 4.194l0.26 0.258 0.129 0.129 0.065 0.063 0.019 0.019 0.563 0.452 1.173 0.941c0.391 0.335 0.782 0.588 1.175 0.857l1.171 0.81c0.782 0.536 1.641 1.16 2.455 1.744 1.28 0.168 2.6 0.323 3.947 0.455-0.258-0.364-0.515-0.73-0.756-1.117l-1.702-2.802c-0.562-0.936-1.179-1.836-1.71-2.8-1.079-1.911-2.197-3.808-3.247-5.729l-3.177-5.739c-1.025-1.915-2.142-3.825-3.145-5.764l-1.536-2.896c-0.511-0.966-1.057-1.911-1.532-2.904l-2.937-5.9-2.79-5.952-2.725-5.976-0.688-1.516-0.632-1.512-1.266-3.021L3.487 27.65l-0.642-1.538c-2.97 10.583-2.243 22.277-0.4 32.269l0.696 0.856C4.381 60.75 5.695 62.223 7.05 63.706z" fill="black"></path></g></svg></g></svg></g><g></g></svg></g></svg></g></svg></g></svg></g><defs><mask></mask></defs></svg><rect width="342.85155851775386" height="342.85155851775386" fill="black" stroke="none" visibility="hidden"></rect></g></mask><linearGradient x1="0" x2="1" y1="0.548" y2="0.55" id="db5a8305-0b7e-4b4c-b031-10ecf25f58d9"><stop stop-color="#ff6cab" offset="0"></stop><stop stop-color="#7366ff" offset="1"></stop></linearGradient></svg><rect width="342.85155851775386" height="342.85155851775386" fill="none" stroke="none" visibility="hidden"></rect></g></svg></g></svg>